<?xml version="1.0" encoding="UTF-8" standalone="no"?><svg xmlns="http://www.w3.org/2000/svg" xmlns:xlink="http://www.w3.org/1999/xlink" clip-rule="evenodd" stroke-miterlimit="4.00" viewBox="0 0 91 92"><desc>SVG generated by Keynote</desc><defs></defs><g transform="matrix(1.00, 0.00, -0.00, -1.00, 0.0, 92.0)"><g><clipPath id="clip-243"><path d="M 0.1 0.7 L 90.8 0.7 L 90.8 91.4 L 0.1 91.4 Z M 0.1 0.7 "></path></clipPath><g clip-path="url(#clip-243)"><path d="M 76.8 77.4 C 94.1 60.1 94.1 32.1 76.8 14.7 C 59.5 -2.6 31.4 -2.6 14.1 14.7 C -3.2 32.1 -3.2 60.1 14.1 77.4 C 31.4 94.8 59.5 94.8 76.8 77.4 " fill="#728089"></path></g></g><g><clipPath id="clip-244"><path d="M 42.4 21.8 L 18.2 46.0 L 42.4 70.2 L 66.6 46.0 Z M 42.4 21.8 "></path></clipPath><g clip-path="url(#clip-244)"><path d="M 42.4 23.2 L 35.8 29.8 L 52.6 46.6 L 36.4 62.9 L 42.4 68.8 L 65.2 46.0 Z M 42.4 23.2 " fill="#FEFFFF"></path></g></g></g></svg>