<?xml version="1.0" encoding="UTF-8" standalone="no"?><svg xmlns="http://www.w3.org/2000/svg" xmlns:xlink="http://www.w3.org/1999/xlink" clip-rule="evenodd" stroke-miterlimit="4.00" viewBox="0 0 92 92"><desc>SVG generated by Keynote</desc><defs></defs><g transform="matrix(1.00, 0.00, -0.00, -1.00, 0.0, 92.0)"><g><clipPath id="clip-245"><path d="M 0.6 0.7 L 91.3 0.7 L 91.3 91.4 L 0.6 91.4 Z M 0.6 0.7 "></path></clipPath><g clip-path="url(#clip-245)"><path d="M 77.3 77.4 C 94.6 60.1 94.6 32.1 77.3 14.7 C 60.0 -2.6 31.9 -2.6 14.6 14.7 C -2.8 32.1 -2.8 60.1 14.6 77.4 C 31.9 94.8 60.0 94.8 77.3 77.4 " fill="#728089"></path></g></g><g><clipPath id="clip-246"><path d="M 47.5 70.2 L 71.7 46.0 L 47.5 21.8 L 23.3 46.0 Z M 47.5 70.2 "></path></clipPath><g clip-path="url(#clip-246)"><path d="M 47.5 68.8 L 54.1 62.3 L 37.3 45.4 L 53.5 29.2 L 47.5 23.2 L 24.7 46.0 Z M 47.5 68.8 " fill="#FEFFFF"></path></g></g></g></svg>