<?xml version="1.0" encoding="UTF-8" standalone="no"?><svg xmlns="http://www.w3.org/2000/svg" xmlns:xlink="http://www.w3.org/1999/xlink" clip-rule="evenodd" stroke-miterlimit="4.00" viewBox="0 0 2048 1536"><desc>SVG generated by Keynote</desc><defs></defs><g transform="matrix(1.00, 0.00, -0.00, -1.00, 0.0, 1536.0)"><g><clipPath id="clip-0"><path d="M 0.0 1536.0 L 2048.0 1536.0 L 2048.0 0.0 L 0.0 0.0 Z M 0.0 1536.0 "></path></clipPath><g clip-path="url(#clip-0)"><image xlink:href="DF8D12AC8A9169C4FFD829CC60B79022.jpeg" width="1024.00" height="768.00" transform="matrix(2.00, 0.00, -0.00, -2.00, 0.0, 1536.0)"></image></g></g><image xlink:href="810205C2E2B438D794D0D2E1FDBA8CE2.png" width="930.00" height="930.00" transform="matrix(1.00, 0.00, -0.00, -1.00, 491.0, 1225.7)" opacity="0.50"></image><path d="M 1281.0 1086.7 C 1461.0 906.7 1461.0 614.8 1281.0 434.7 C 1100.9 254.7 809.1 254.7 629.0 434.7 C 449.0 614.8 449.0 906.7 629.0 1086.7 C 809.1 1266.7 1100.9 1266.7 1281.0 1086.7 " fill="#009ED8"></path><text xml:space="preserve" font-family="Novecentosanswide-DemiBold" font-weight="bold" font-size="160.0" fill="#FEFFFF" transform="matrix(1.00, 0.00, -0.00, -1.00, 655.0, 910.0)">a</text><text xml:space="preserve" font-family="Novecentosanswide-DemiBold" font-weight="bold" font-size="160.0" fill="#FEFFFF" transform="matrix(1.00, 0.00, -0.00, -1.00, 753.2, 910.0)">r</text><text xml:space="preserve" font-family="Novecentosanswide-DemiBold" font-weight="bold" font-size="160.0" fill="#FEFFFF" transform="matrix(1.00, 0.00, -0.00, -1.00, 840.4, 910.0)">t</text><text xml:space="preserve" font-family="Novecentosanswide-DemiBold" font-weight="bold" font-size="160.0" fill="#FEFFFF" transform="matrix(1.00, 0.00, -0.00, -1.00, 931.0, 910.0)">i</text><text xml:space="preserve" font-family="Novecentosanswide-DemiBold" font-weight="bold" font-size="160.0" fill="#FEFFFF" transform="matrix(1.00, 0.00, -0.00, -1.00, 972.1, 910.0)">s</text><text xml:space="preserve" font-family="Novecentosanswide-DemiBold" font-weight="bold" font-size="160.0" fill="#FEFFFF" transform="matrix(1.00, 0.00, -0.00, -1.00, 1056.4, 910.0)">a</text><text xml:space="preserve" font-family="Novecentosanswide-DemiBold" font-weight="bold" font-size="160.0" fill="#FEFFFF" transform="matrix(1.00, 0.00, -0.00, -1.00, 1154.7, 910.0)">n</text><text xml:space="preserve" font-family="Novecentosanswide-DemiBold" font-weight="bold" font-size="160.0" fill="#FEFFFF" transform="matrix(1.00, 0.00, -0.00, -1.00, 1258.4, 910.0)"> </text><text xml:space="preserve" font-family="Novecentosanswide-DemiBold" font-weight="bold" font-size="160.0" fill="#FEFFFF" transform="matrix(1.00, 0.00, -0.00, -1.00, 624.0, 757.0)">c</text><text xml:space="preserve" font-family="Novecentosanswide-DemiBold" font-weight="bold" font-size="160.0" fill="#FEFFFF" transform="matrix(1.00, 0.00, -0.00, -1.00, 725.3, 757.0)">o</text><text xml:space="preserve" font-family="Novecentosanswide-DemiBold" font-weight="bold" font-size="160.0" fill="#FEFFFF" transform="matrix(1.00, 0.00, -0.00, -1.00, 831.2, 757.0)">n</text><text xml:space="preserve" font-family="Novecentosanswide-DemiBold" font-weight="bold" font-size="160.0" fill="#FEFFFF" transform="matrix(1.00, 0.00, -0.00, -1.00, 934.9, 757.0)">s</text><text xml:space="preserve" font-family="Novecentosanswide-DemiBold" font-weight="bold" font-size="160.0" fill="#FEFFFF" transform="matrix(1.00, 0.00, -0.00, -1.00, 1019.2, 757.0)">o</text><text xml:space="preserve" font-family="Novecentosanswide-DemiBold" font-weight="bold" font-size="160.0" fill="#FEFFFF" transform="matrix(1.00, 0.00, -0.00, -1.00, 1125.1, 757.0)">l</text><text xml:space="preserve" font-family="Novecentosanswide-DemiBold" font-weight="bold" font-size="160.0" fill="#FEFFFF" transform="matrix(1.00, 0.00, -0.00, -1.00, 1203.4, 757.0)">e</text><text xml:space="preserve" font-family="Novecentosanswide-Medium" font-size="72.0" fill="#47474D" transform="matrix(1.00, 0.00, -0.00, -1.00, 664.0, 615.0)">T</text><text xml:space="preserve" font-family="Novecentosanswide-Medium" font-size="72.0" fill="#47474D" transform="matrix(1.00, 0.00, -0.00, -1.00, 710.4, 615.0)">H</text><text xml:space="preserve" font-family="Novecentosanswide-Medium" font-size="72.0" fill="#47474D" transform="matrix(1.00, 0.00, -0.00, -1.00, 761.3, 615.0)">E</text><text xml:space="preserve" font-family="Novecentosanswide-Medium" font-size="72.0" fill="#47474D" transform="matrix(1.00, 0.00, -0.00, -1.00, 804.8, 615.0)"> </text><text xml:space="preserve" font-family="Novecentosanswide-Medium" font-size="72.0" fill="#47474D" transform="matrix(1.00, 0.00, -0.00, -1.00, 822.8, 615.0)">E</text><text xml:space="preserve" font-family="Novecentosanswide-Medium" font-size="72.0" fill="#47474D" transform="matrix(1.00, 0.00, -0.00, -1.00, 866.2, 615.0)">S</text><text xml:space="preserve" font-family="Novecentosanswide-Medium" font-size="72.0" fill="#47474D" transform="matrix(1.00, 0.00, -0.00, -1.00, 909.7, 615.0)">S</text><text xml:space="preserve" font-family="Novecentosanswide-Medium" font-size="72.0" fill="#47474D" transform="matrix(1.00, 0.00, -0.00, -1.00, 953.2, 615.0)">E</text><text xml:space="preserve" font-family="Novecentosanswide-Medium" font-size="72.0" fill="#47474D" transform="matrix(1.00, 0.00, -0.00, -1.00, 996.7, 615.0)">N</text><text xml:space="preserve" font-family="Novecentosanswide-Medium" font-size="72.0" fill="#47474D" transform="matrix(1.00, 0.00, -0.00, -1.00, 1049.6, 615.0)">T</text><text xml:space="preserve" font-family="Novecentosanswide-Medium" font-size="72.0" fill="#47474D" transform="matrix(1.00, 0.00, -0.00, -1.00, 1096.0, 615.0)">I</text><text xml:space="preserve" font-family="Novecentosanswide-Medium" font-size="72.0" fill="#47474D" transform="matrix(1.00, 0.00, -0.00, -1.00, 1114.0, 615.0)">A</text><text xml:space="preserve" font-family="Novecentosanswide-Medium" font-size="72.0" fill="#47474D" transform="matrix(1.00, 0.00, -0.00, -1.00, 1167.3, 615.0)">L</text><text xml:space="preserve" font-family="Novecentosanswide-Medium" font-size="72.0" fill="#47474D" transform="matrix(1.00, 0.00, -0.00, -1.00, 1207.0, 615.0)">S</text><text xml:space="preserve" font-family="Novecentosanswide-Medium" font-size="72.0" fill="#47474D" transform="matrix(1.00, 0.00, -0.00, -1.00, 1250.4, 615.0)"> </text><text xml:space="preserve" font-family="Novecentosanswide-Medium" font-size="72.0" fill="#47474D" transform="matrix(1.00, 0.00, -0.00, -1.00, 703.0, 528.0)">A</text><text xml:space="preserve" font-family="Novecentosanswide-Medium" font-size="72.0" fill="#47474D" transform="matrix(1.00, 0.00, -0.00, -1.00, 756.3, 528.0)">N</text><text xml:space="preserve" font-family="Novecentosanswide-Medium" font-size="72.0" fill="#47474D" transform="matrix(1.00, 0.00, -0.00, -1.00, 809.2, 528.0)">D</text><text xml:space="preserve" font-family="Novecentosanswide-Medium" font-size="72.0" fill="#47474D" transform="matrix(1.00, 0.00, -0.00, -1.00, 862.2, 528.0)"> </text><text xml:space="preserve" font-family="Novecentosanswide-Medium" font-size="72.0" fill="#47474D" transform="matrix(1.00, 0.00, -0.00, -1.00, 880.2, 528.0)">G</text><text xml:space="preserve" font-family="Novecentosanswide-Medium" font-size="72.0" fill="#47474D" transform="matrix(1.00, 0.00, -0.00, -1.00, 936.9, 528.0)">O</text><text xml:space="preserve" font-family="Novecentosanswide-Medium" font-size="72.0" fill="#47474D" transform="matrix(1.00, 0.00, -0.00, -1.00, 994.7, 528.0)">O</text><text xml:space="preserve" font-family="Novecentosanswide-Medium" font-size="72.0" fill="#47474D" transform="matrix(1.00, 0.00, -0.00, -1.00, 1052.3, 528.0)">D</text><text xml:space="preserve" font-family="Novecentosanswide-Medium" font-size="72.0" fill="#47474D" transform="matrix(1.00, 0.00, -0.00, -1.00, 1105.3, 528.0)">I</text><text xml:space="preserve" font-family="Novecentosanswide-Medium" font-size="72.0" fill="#47474D" transform="matrix(1.00, 0.00, -0.00, -1.00, 1123.3, 528.0)">E</text><text xml:space="preserve" font-family="Novecentosanswide-Medium" font-size="72.0" fill="#47474D" transform="matrix(1.00, 0.00, -0.00, -1.00, 1166.8, 528.0)">S</text></g></svg>