<?xml version="1.0" encoding="UTF-8" standalone="no"?><svg xmlns="http://www.w3.org/2000/svg" xmlns:xlink="http://www.w3.org/1999/xlink" clip-rule="evenodd" stroke-miterlimit="4.00" viewBox="0 0 2048 1536"><desc>SVG generated by Keynote</desc><defs></defs><g transform="matrix(1.00, 0.00, -0.00, -1.00, 0.0, 1536.0)"><g><clipPath id="clip-42"><path d="M 0.0 1536.0 L 2048.0 1536.0 L 2048.0 0.0 L 0.0 0.0 Z M 0.0 1536.0 "></path></clipPath><g clip-path="url(#clip-42)"><image xlink:href="../../B2961985-4EB2-4BF3-B17D-0C256ECF333E/assets/EA215432A0DB698A213B0261797CC710.jpeg" width="1024.00" height="768.00" transform="matrix(2.00, 0.00, -0.00, -2.00, 0.0, 1536.0)"></image></g></g><g><clipPath id="clip-43"><path d="M 1888.1 60.7 L 1978.8 60.7 L 1978.8 151.4 L 1888.1 151.4 Z M 1888.1 60.7 "></path></clipPath><g clip-path="url(#clip-43)"><path d="M 1964.8 137.4 C 1982.1 120.1 1982.1 92.1 1964.8 74.7 C 1947.5 57.4 1919.4 57.4 1902.1 74.7 C 1884.8 92.1 1884.8 120.1 1902.1 137.4 C 1919.4 154.8 1947.5 154.8 1964.8 137.4 " fill="#728089"></path></g></g><g><clipPath id="clip-44"><path d="M 1930.4 81.8 L 1906.2 106.0 L 1930.4 130.2 L 1954.6 106.0 Z M 1930.4 81.8 "></path></clipPath><g clip-path="url(#clip-44)"><path d="M 1930.4 83.2 L 1923.8 89.8 L 1940.6 106.6 L 1924.4 122.9 L 1930.4 128.8 L 1953.2 106.0 Z M 1930.4 83.2 " fill="#FEFFFF"></path></g></g><g><clipPath id="clip-45"><path d="M 1770.6 60.7 L 1861.3 60.7 L 1861.3 151.4 L 1770.6 151.4 Z M 1770.6 60.7 "></path></clipPath><g clip-path="url(#clip-45)"><path d="M 1847.3 137.4 C 1864.6 120.1 1864.6 92.1 1847.3 74.7 C 1830.0 57.4 1801.9 57.4 1784.6 74.7 C 1767.2 92.1 1767.2 120.1 1784.6 137.4 C 1801.9 154.8 1830.0 154.8 1847.3 137.4 " fill="#728089"></path></g></g><g><clipPath id="clip-46"><path d="M 1817.5 130.2 L 1841.7 106.0 L 1817.5 81.8 L 1793.3 106.0 Z M 1817.5 130.2 "></path></clipPath><g clip-path="url(#clip-46)"><path d="M 1817.5 128.8 L 1824.1 122.3 L 1807.3 105.4 L 1823.5 89.2 L 1817.5 83.2 L 1794.7 106.0 Z M 1817.5 128.8 " fill="#FEFFFF"></path></g></g><text xml:space="preserve" font-family="Novecentosanswide-Medium" font-size="112.0" fill="#FEFFFF" transform="matrix(1.00, 0.00, -0.00, -1.00, 426.0, 1350.0)">C</text><text xml:space="preserve" font-family="Novecentosanswide-Medium" font-size="112.0" fill="#FEFFFF" transform="matrix(1.00, 0.00, -0.00, -1.00, 507.1, 1350.0)">R</text><text xml:space="preserve" font-family="Novecentosanswide-Medium" font-size="112.0" fill="#FEFFFF" transform="matrix(1.00, 0.00, -0.00, -1.00, 571.9, 1350.0)">E</text><text xml:space="preserve" font-family="Novecentosanswide-Medium" font-size="112.0" fill="#FEFFFF" transform="matrix(1.00, 0.00, -0.00, -1.00, 635.4, 1350.0)">A</text><text xml:space="preserve" font-family="Novecentosanswide-Medium" font-size="112.0" fill="#FEFFFF" transform="matrix(1.00, 0.00, -0.00, -1.00, 701.7, 1350.0)">T</text><text xml:space="preserve" font-family="Novecentosanswide-Medium" font-size="112.0" fill="#FEFFFF" transform="matrix(1.00, 0.00, -0.00, -1.00, 769.7, 1350.0)">I</text><text xml:space="preserve" font-family="Novecentosanswide-Medium" font-size="112.0" fill="#FEFFFF" transform="matrix(1.00, 0.00, -0.00, -1.00, 793.5, 1350.0)">N</text><text xml:space="preserve" font-family="Novecentosanswide-Medium" font-size="112.0" fill="#FEFFFF" transform="matrix(1.00, 0.00, -0.00, -1.00, 871.6, 1350.0)">G</text><text xml:space="preserve" font-family="Novecentosanswide-Medium" font-size="112.0" fill="#FEFFFF" transform="matrix(1.00, 0.00, -0.00, -1.00, 955.5, 1350.0)"> </text><text xml:space="preserve" font-family="Novecentosanswide-DemiBold" font-weight="bold" font-size="112.0" fill="#8899A5" transform="matrix(1.00, 0.00, -0.00, -1.00, 979.3, 1350.0)">C</text><text xml:space="preserve" font-family="Novecentosanswide-DemiBold" font-weight="bold" font-size="112.0" fill="#8899A5" transform="matrix(1.00, 0.00, -0.00, -1.00, 1059.8, 1350.0)">O</text><text xml:space="preserve" font-family="Novecentosanswide-DemiBold" font-weight="bold" font-size="112.0" fill="#8899A5" transform="matrix(1.00, 0.00, -0.00, -1.00, 1144.9, 1350.0)">M</text><text xml:space="preserve" font-family="Novecentosanswide-DemiBold" font-weight="bold" font-size="112.0" fill="#8899A5" transform="matrix(1.00, 0.00, -0.00, -1.00, 1231.6, 1350.0)">M</text><text xml:space="preserve" font-family="Novecentosanswide-DemiBold" font-weight="bold" font-size="112.0" fill="#8899A5" transform="matrix(1.00, 0.00, -0.00, -1.00, 1318.4, 1350.0)">A</text><text xml:space="preserve" font-family="Novecentosanswide-DemiBold" font-weight="bold" font-size="112.0" fill="#8899A5" transform="matrix(1.00, 0.00, -0.00, -1.00, 1398.0, 1350.0)">N</text><text xml:space="preserve" font-family="Novecentosanswide-DemiBold" font-weight="bold" font-size="112.0" fill="#8899A5" transform="matrix(1.00, 0.00, -0.00, -1.00, 1477.0, 1350.0)">D</text><text xml:space="preserve" font-family="Novecentosanswide-DemiBold" font-weight="bold" font-size="112.0" fill="#8899A5" transform="matrix(1.00, 0.00, -0.00, -1.00, 1556.1, 1350.0)">S</text><image xlink:href="../../2420A528-FFAE-4C62-8CD7-0F29A19C98C5/assets/FFD2638FF3312A3B7D5111FE55D0E1D3.png" width="2053.00" height="144.00" transform="matrix(1.00, 0.00, -0.00, -1.00, -2.6, 1169.4)" opacity="0.70"></image><image xlink:href="../../2420A528-FFAE-4C62-8CD7-0F29A19C98C5/assets/F34A66CDB14C05E1C6FC6E475C6D6932.png" width="960.00" height="49.00" transform="matrix(2.10, 0.00, -0.00, -2.12, 17.0, 1159.0)"></image><image xlink:href="../../2420A528-FFAE-4C62-8CD7-0F29A19C98C5/assets/1F6A804BAFD3D804271ECD50DB74104E.png" width="870.00" height="945.00" transform="matrix(1.00, 0.00, -0.00, -1.00, 588.9, 962.5)" opacity="0.70"></image><image xlink:href="../../2420A528-FFAE-4C62-8CD7-0F29A19C98C5/assets/69872FF7294C656A95A006FA7B7548D9.png" width="490.00" height="534.00" transform="matrix(1.69, 0.00, -0.00, -1.69, 609.0, 952.0)"></image></g></svg>