<?xml version="1.0" encoding="UTF-8" standalone="no"?><svg xmlns="http://www.w3.org/2000/svg" xmlns:xlink="http://www.w3.org/1999/xlink" clip-rule="evenodd" stroke-miterlimit="4.00" viewBox="0 0 2048 1536"><desc>SVG generated by Keynote</desc><defs></defs><g transform="matrix(1.00, 0.00, -0.00, -1.00, 0.0, 1536.0)"><g><clipPath id="clip-172"><path d="M 0.0 1536.0 L 2048.0 1536.0 L 2048.0 0.0 L 0.0 0.0 Z M 0.0 1536.0 "></path></clipPath><g clip-path="url(#clip-172)"><image xlink:href="../../B2961985-4EB2-4BF3-B17D-0C256ECF333E/assets/EA215432A0DB698A213B0261797CC710.jpeg" width="1024.00" height="768.00" transform="matrix(2.00, 0.00, -0.00, -2.00, 0.0, 1536.0)"></image></g></g><g><clipPath id="clip-173"><path d="M 1888.1 60.7 L 1978.8 60.7 L 1978.8 151.4 L 1888.1 151.4 Z M 1888.1 60.7 "></path></clipPath><g clip-path="url(#clip-173)"><path d="M 1964.8 137.4 C 1982.1 120.1 1982.1 92.1 1964.8 74.7 C 1947.5 57.4 1919.4 57.4 1902.1 74.7 C 1884.8 92.1 1884.8 120.1 1902.1 137.4 C 1919.4 154.8 1947.5 154.8 1964.8 137.4 " fill="#728089"></path></g></g><g><clipPath id="clip-174"><path d="M 1930.4 81.8 L 1906.2 106.0 L 1930.4 130.2 L 1954.6 106.0 Z M 1930.4 81.8 "></path></clipPath><g clip-path="url(#clip-174)"><path d="M 1930.4 83.2 L 1923.8 89.8 L 1940.6 106.6 L 1924.4 122.9 L 1930.4 128.8 L 1953.2 106.0 Z M 1930.4 83.2 " fill="#FEFFFF"></path></g></g><g><clipPath id="clip-175"><path d="M 1770.6 60.7 L 1861.3 60.7 L 1861.3 151.4 L 1770.6 151.4 Z M 1770.6 60.7 "></path></clipPath><g clip-path="url(#clip-175)"><path d="M 1847.3 137.4 C 1864.6 120.1 1864.6 92.1 1847.3 74.7 C 1830.0 57.4 1801.9 57.4 1784.6 74.7 C 1767.2 92.1 1767.2 120.1 1784.6 137.4 C 1801.9 154.8 1830.0 154.8 1847.3 137.4 " fill="#728089"></path></g></g><g><clipPath id="clip-176"><path d="M 1817.5 130.2 L 1841.7 106.0 L 1817.5 81.8 L 1793.3 106.0 Z M 1817.5 130.2 "></path></clipPath><g clip-path="url(#clip-176)"><path d="M 1817.5 128.8 L 1824.1 122.3 L 1807.3 105.4 L 1823.5 89.2 L 1817.5 83.2 L 1794.7 106.0 Z M 1817.5 128.8 " fill="#FEFFFF"></path></g></g><text xml:space="preserve" font-family="Cantarell-Regular" font-size="68.0" fill="#8899A5" transform="matrix(1.00, 0.00, -0.00, -1.00, 748.0, 1255.0)">a</text><text xml:space="preserve" font-family="Cantarell-Regular" font-size="68.0" fill="#8899A5" transform="matrix(1.00, 0.00, -0.00, -1.00, 783.5, 1255.0)">s</text><text xml:space="preserve" font-family="Cantarell-Regular" font-size="68.0" fill="#8899A5" transform="matrix(1.00, 0.00, -0.00, -1.00, 817.2, 1255.0)">s</text><text xml:space="preserve" font-family="Cantarell-Regular" font-size="68.0" fill="#8899A5" transform="matrix(1.00, 0.00, -0.00, -1.00, 851.0, 1255.0)">i</text><text xml:space="preserve" font-family="Cantarell-Regular" font-size="68.0" fill="#8899A5" transform="matrix(1.00, 0.00, -0.00, -1.00, 868.4, 1255.0)">s</text><text xml:space="preserve" font-family="Cantarell-Regular" font-size="68.0" fill="#8899A5" transform="matrix(1.00, 0.00, -0.00, -1.00, 902.1, 1255.0)">t</text><text xml:space="preserve" font-family="Cantarell-Regular" font-size="68.0" fill="#8899A5" transform="matrix(1.00, 0.00, -0.00, -1.00, 927.9, 1255.0)">i</text><text xml:space="preserve" font-family="Cantarell-Regular" font-size="68.0" fill="#8899A5" transform="matrix(1.00, 0.00, -0.00, -1.00, 945.3, 1255.0)">n</text><text xml:space="preserve" font-family="Cantarell-Regular" font-size="68.0" fill="#8899A5" transform="matrix(1.00, 0.00, -0.00, -1.00, 984.3, 1255.0)">g</text><text xml:space="preserve" font-family="Cantarell-Regular" font-size="68.0" fill="#8899A5" transform="matrix(1.00, 0.00, -0.00, -1.00, 1023.4, 1255.0)"> </text><text xml:space="preserve" font-family="Cantarell-Regular" font-size="68.0" fill="#8899A5" transform="matrix(1.00, 0.00, -0.00, -1.00, 1042.0, 1255.0)">t</text><text xml:space="preserve" font-family="Cantarell-Regular" font-size="68.0" fill="#8899A5" transform="matrix(1.00, 0.00, -0.00, -1.00, 1067.8, 1255.0)">h</text><text xml:space="preserve" font-family="Cantarell-Regular" font-size="68.0" fill="#8899A5" transform="matrix(1.00, 0.00, -0.00, -1.00, 1107.3, 1255.0)">e</text><text xml:space="preserve" font-family="Cantarell-Regular" font-size="68.0" fill="#8899A5" transform="matrix(1.00, 0.00, -0.00, -1.00, 1143.9, 1255.0)"> </text><text xml:space="preserve" font-family="Cantarell-Regular" font-size="68.0" fill="#8899A5" transform="matrix(1.00, 0.00, -0.00, -1.00, 1162.5, 1255.0)">u</text><text xml:space="preserve" font-family="Cantarell-Regular" font-size="68.0" fill="#8899A5" transform="matrix(1.00, 0.00, -0.00, -1.00, 1201.6, 1255.0)">s</text><text xml:space="preserve" font-family="Cantarell-Regular" font-size="68.0" fill="#8899A5" transform="matrix(1.00, 0.00, -0.00, -1.00, 1235.3, 1255.0)">e</text><text xml:space="preserve" font-family="Cantarell-Regular" font-size="68.0" fill="#8899A5" transform="matrix(1.00, 0.00, -0.00, -1.00, 1271.9, 1255.0)">r</text><text xml:space="preserve" font-family="Novecentosanswide-Medium" font-size="112.0" fill="#FEFFFF" transform="matrix(1.00, 0.00, -0.00, -1.00, 536.0, 1350.0)">C</text><text xml:space="preserve" font-family="Novecentosanswide-Medium" font-size="112.0" fill="#FEFFFF" transform="matrix(1.00, 0.00, -0.00, -1.00, 617.1, 1350.0)">O</text><text xml:space="preserve" font-family="Novecentosanswide-Medium" font-size="112.0" fill="#FEFFFF" transform="matrix(1.00, 0.00, -0.00, -1.00, 702.4, 1350.0)">N</text><text xml:space="preserve" font-family="Novecentosanswide-Medium" font-size="112.0" fill="#FEFFFF" transform="matrix(1.00, 0.00, -0.00, -1.00, 780.6, 1350.0)">S</text><text xml:space="preserve" font-family="Novecentosanswide-Medium" font-size="112.0" fill="#FEFFFF" transform="matrix(1.00, 0.00, -0.00, -1.00, 844.0, 1350.0)">O</text><text xml:space="preserve" font-family="Novecentosanswide-Medium" font-size="112.0" fill="#FEFFFF" transform="matrix(1.00, 0.00, -0.00, -1.00, 929.3, 1350.0)">L</text><text xml:space="preserve" font-family="Novecentosanswide-Medium" font-size="112.0" fill="#FEFFFF" transform="matrix(1.00, 0.00, -0.00, -1.00, 988.5, 1350.0)">E</text><text xml:space="preserve" font-family="Novecentosanswide-Medium" font-size="112.0" fill="#FEFFFF" transform="matrix(1.00, 0.00, -0.00, -1.00, 1051.9, 1350.0)"> </text><text xml:space="preserve" font-family="Novecentosanswide-DemiBold" font-weight="bold" font-size="112.0" fill="#8899A5" transform="matrix(1.00, 0.00, -0.00, -1.00, 1075.7, 1350.0)">O</text><text xml:space="preserve" font-family="Novecentosanswide-DemiBold" font-weight="bold" font-size="112.0" fill="#8899A5" transform="matrix(1.00, 0.00, -0.00, -1.00, 1161.6, 1350.0)">U</text><text xml:space="preserve" font-family="Novecentosanswide-DemiBold" font-weight="bold" font-size="112.0" fill="#8899A5" transform="matrix(1.00, 0.00, -0.00, -1.00, 1236.3, 1350.0)">T</text><text xml:space="preserve" font-family="Novecentosanswide-DemiBold" font-weight="bold" font-size="112.0" fill="#8899A5" transform="matrix(1.00, 0.00, -0.00, -1.00, 1305.0, 1350.0)">P</text><text xml:space="preserve" font-family="Novecentosanswide-DemiBold" font-weight="bold" font-size="112.0" fill="#8899A5" transform="matrix(1.00, 0.00, -0.00, -1.00, 1368.3, 1350.0)">U</text><text xml:space="preserve" font-family="Novecentosanswide-DemiBold" font-weight="bold" font-size="112.0" fill="#8899A5" transform="matrix(1.00, 0.00, -0.00, -1.00, 1443.0, 1350.0)">T</text><text xml:space="preserve" font-family="Novecentosanswide-Medium" font-size="50.0" fill="#FEFFFF" transform="matrix(1.00, 0.00, -0.00, -1.00, 951.0, 647.0)">C</text><text xml:space="preserve" font-family="Novecentosanswide-Medium" font-size="50.0" fill="#FEFFFF" transform="matrix(1.00, 0.00, -0.00, -1.00, 989.1, 647.0)">O</text><text xml:space="preserve" font-family="Novecentosanswide-Medium" font-size="50.0" fill="#FEFFFF" transform="matrix(1.00, 0.00, -0.00, -1.00, 1029.0, 647.0)">D</text><text xml:space="preserve" font-family="Novecentosanswide-Medium" font-size="50.0" fill="#FEFFFF" transform="matrix(1.00, 0.00, -0.00, -1.00, 1065.8, 647.0)">E</text><image xlink:href="3C3A894DD7827407782FC9777E1B8C93.png" width="1694.00" height="312.00" transform="matrix(1.00, 0.00, -0.00, -1.00, 179.5, 1074.6)" opacity="0.50"></image><image xlink:href="BB5AA5048B9B76A312CB6D0762E18B4D.png" width="376.00" height="67.00" transform="matrix(4.47, 0.00, -0.00, -4.47, 183.0, 1071.7)"></image><text xml:space="preserve" font-family="Novecentosanswide-Medium" font-size="50.0" fill="#FEFFFF" transform="matrix(1.00, 0.00, -0.00, -1.00, 908.0, 1112.0)">E</text><text xml:space="preserve" font-family="Novecentosanswide-Medium" font-size="50.0" fill="#FEFFFF" transform="matrix(1.00, 0.00, -0.00, -1.00, 938.2, 1112.0)">X</text><text xml:space="preserve" font-family="Novecentosanswide-Medium" font-size="50.0" fill="#FEFFFF" transform="matrix(1.00, 0.00, -0.00, -1.00, 974.2, 1112.0)">A</text><text xml:space="preserve" font-family="Novecentosanswide-Medium" font-size="50.0" fill="#FEFFFF" transform="matrix(1.00, 0.00, -0.00, -1.00, 1011.2, 1112.0)">M</text><text xml:space="preserve" font-family="Novecentosanswide-Medium" font-size="50.0" fill="#FEFFFF" transform="matrix(1.00, 0.00, -0.00, -1.00, 1051.5, 1112.0)">P</text><text xml:space="preserve" font-family="Novecentosanswide-Medium" font-size="50.0" fill="#FEFFFF" transform="matrix(1.00, 0.00, -0.00, -1.00, 1081.0, 1112.0)">L</text><text xml:space="preserve" font-family="Novecentosanswide-Medium" font-size="50.0" fill="#FEFFFF" transform="matrix(1.00, 0.00, -0.00, -1.00, 1109.3, 1112.0)">E</text><image xlink:href="FEBEBDC5D0EB1A3B50E467C606B8ACF9.png" width="1545.00" height="577.00" transform="matrix(1.00, 0.00, -0.00, -1.00, 251.7, 624.3)" opacity="0.70"></image><image xlink:href="BAC45FADA58A77721C4BD0A1579E3678.png" width="784.00" height="280.00" transform="matrix(1.92, 0.00, -0.00, -1.92, 272.0, 614.0)"></image></g></svg>