<?xml version="1.0" encoding="UTF-8" standalone="no"?><svg xmlns="http://www.w3.org/2000/svg" xmlns:xlink="http://www.w3.org/1999/xlink" clip-rule="evenodd" stroke-miterlimit="4.00" viewBox="0 0 2048 1536"><desc>SVG generated by Keynote</desc><defs></defs><g transform="matrix(1.00, 0.00, -0.00, -1.00, 0.0, 1536.0)"><g><clipPath id="clip-132"><path d="M 0.0 1536.0 L 2048.0 1536.0 L 2048.0 0.0 L 0.0 0.0 Z M 0.0 1536.0 "></path></clipPath><g clip-path="url(#clip-132)"><image xlink:href="../../B2961985-4EB2-4BF3-B17D-0C256ECF333E/assets/EA215432A0DB698A213B0261797CC710.jpeg" width="1024.00" height="768.00" transform="matrix(2.00, 0.00, -0.00, -2.00, 0.0, 1536.0)"></image></g></g><g><clipPath id="clip-133"><path d="M 1888.1 60.7 L 1978.8 60.7 L 1978.8 151.4 L 1888.1 151.4 Z M 1888.1 60.7 "></path></clipPath><g clip-path="url(#clip-133)"><path d="M 1964.8 137.4 C 1982.1 120.1 1982.1 92.1 1964.8 74.7 C 1947.5 57.4 1919.4 57.4 1902.1 74.7 C 1884.8 92.1 1884.8 120.1 1902.1 137.4 C 1919.4 154.8 1947.5 154.8 1964.8 137.4 " fill="#728089"></path></g></g><g><clipPath id="clip-134"><path d="M 1930.4 81.8 L 1906.2 106.0 L 1930.4 130.2 L 1954.6 106.0 Z M 1930.4 81.8 "></path></clipPath><g clip-path="url(#clip-134)"><path d="M 1930.4 83.2 L 1923.8 89.8 L 1940.6 106.6 L 1924.4 122.9 L 1930.4 128.8 L 1953.2 106.0 Z M 1930.4 83.2 " fill="#FEFFFF"></path></g></g><g><clipPath id="clip-135"><path d="M 1770.6 60.7 L 1861.3 60.7 L 1861.3 151.4 L 1770.6 151.4 Z M 1770.6 60.7 "></path></clipPath><g clip-path="url(#clip-135)"><path d="M 1847.3 137.4 C 1864.6 120.1 1864.6 92.1 1847.3 74.7 C 1830.0 57.4 1801.9 57.4 1784.6 74.7 C 1767.2 92.1 1767.2 120.1 1784.6 137.4 C 1801.9 154.8 1830.0 154.8 1847.3 137.4 " fill="#728089"></path></g></g><g><clipPath id="clip-136"><path d="M 1817.5 130.2 L 1841.7 106.0 L 1817.5 81.8 L 1793.3 106.0 Z M 1817.5 130.2 "></path></clipPath><g clip-path="url(#clip-136)"><path d="M 1817.5 128.8 L 1824.1 122.3 L 1807.3 105.4 L 1823.5 89.2 L 1817.5 83.2 L 1794.7 106.0 Z M 1817.5 128.8 " fill="#FEFFFF"></path></g></g><text xml:space="preserve" font-family="Cantarell-Regular" font-size="68.0" fill="#8899A5" transform="matrix(1.00, 0.00, -0.00, -1.00, 694.0, 1255.0)">c</text><text xml:space="preserve" font-family="Cantarell-Regular" font-size="68.0" fill="#8899A5" transform="matrix(1.00, 0.00, -0.00, -1.00, 727.2, 1255.0)">o</text><text xml:space="preserve" font-family="Cantarell-Regular" font-size="68.0" fill="#8899A5" transform="matrix(1.00, 0.00, -0.00, -1.00, 767.5, 1255.0)">l</text><text xml:space="preserve" font-family="Cantarell-Regular" font-size="68.0" fill="#8899A5" transform="matrix(1.00, 0.00, -0.00, -1.00, 786.2, 1255.0)">l</text><text xml:space="preserve" font-family="Cantarell-Regular" font-size="68.0" fill="#8899A5" transform="matrix(1.00, 0.00, -0.00, -1.00, 805.0, 1255.0)">e</text><text xml:space="preserve" font-family="Cantarell-Regular" font-size="68.0" fill="#8899A5" transform="matrix(1.00, 0.00, -0.00, -1.00, 841.6, 1255.0)">c</text><text xml:space="preserve" font-family="Cantarell-Regular" font-size="68.0" fill="#8899A5" transform="matrix(1.00, 0.00, -0.00, -1.00, 874.8, 1255.0)">t</text><text xml:space="preserve" font-family="Cantarell-Regular" font-size="68.0" fill="#8899A5" transform="matrix(1.00, 0.00, -0.00, -1.00, 900.5, 1255.0)">i</text><text xml:space="preserve" font-family="Cantarell-Regular" font-size="68.0" fill="#8899A5" transform="matrix(1.00, 0.00, -0.00, -1.00, 917.9, 1255.0)">n</text><text xml:space="preserve" font-family="Cantarell-Regular" font-size="68.0" fill="#8899A5" transform="matrix(1.00, 0.00, -0.00, -1.00, 957.0, 1255.0)">g</text><text xml:space="preserve" font-family="Cantarell-Regular" font-size="68.0" fill="#8899A5" transform="matrix(1.00, 0.00, -0.00, -1.00, 996.1, 1255.0)"> </text><text xml:space="preserve" font-family="Cantarell-Regular" font-size="68.0" fill="#8899A5" transform="matrix(1.00, 0.00, -0.00, -1.00, 1014.7, 1255.0)">p</text><text xml:space="preserve" font-family="Cantarell-Regular" font-size="68.0" fill="#8899A5" transform="matrix(1.00, 0.00, -0.00, -1.00, 1053.7, 1255.0)">a</text><text xml:space="preserve" font-family="Cantarell-Regular" font-size="68.0" fill="#8899A5" transform="matrix(1.00, 0.00, -0.00, -1.00, 1089.2, 1255.0)">s</text><text xml:space="preserve" font-family="Cantarell-Regular" font-size="68.0" fill="#8899A5" transform="matrix(1.00, 0.00, -0.00, -1.00, 1123.0, 1255.0)">s</text><text xml:space="preserve" font-family="Cantarell-Regular" font-size="68.0" fill="#8899A5" transform="matrix(1.00, 0.00, -0.00, -1.00, 1156.7, 1255.0)">w</text><text xml:space="preserve" font-family="Cantarell-Regular" font-size="68.0" fill="#8899A5" transform="matrix(1.00, 0.00, -0.00, -1.00, 1212.6, 1255.0)">o</text><text xml:space="preserve" font-family="Cantarell-Regular" font-size="68.0" fill="#8899A5" transform="matrix(1.00, 0.00, -0.00, -1.00, 1252.9, 1255.0)">r</text><text xml:space="preserve" font-family="Cantarell-Regular" font-size="68.0" fill="#8899A5" transform="matrix(1.00, 0.00, -0.00, -1.00, 1279.5, 1255.0)">d</text><text xml:space="preserve" font-family="Cantarell-Regular" font-size="68.0" fill="#8899A5" transform="matrix(1.00, 0.00, -0.00, -1.00, 1318.9, 1255.0)">s</text><text xml:space="preserve" font-family="Novecentosanswide-Medium" font-size="112.0" fill="#FEFFFF" transform="matrix(1.00, 0.00, -0.00, -1.00, 536.0, 1350.0)">C</text><text xml:space="preserve" font-family="Novecentosanswide-Medium" font-size="112.0" fill="#FEFFFF" transform="matrix(1.00, 0.00, -0.00, -1.00, 617.1, 1350.0)">O</text><text xml:space="preserve" font-family="Novecentosanswide-Medium" font-size="112.0" fill="#FEFFFF" transform="matrix(1.00, 0.00, -0.00, -1.00, 702.4, 1350.0)">N</text><text xml:space="preserve" font-family="Novecentosanswide-Medium" font-size="112.0" fill="#FEFFFF" transform="matrix(1.00, 0.00, -0.00, -1.00, 780.6, 1350.0)">S</text><text xml:space="preserve" font-family="Novecentosanswide-Medium" font-size="112.0" fill="#FEFFFF" transform="matrix(1.00, 0.00, -0.00, -1.00, 844.0, 1350.0)">O</text><text xml:space="preserve" font-family="Novecentosanswide-Medium" font-size="112.0" fill="#FEFFFF" transform="matrix(1.00, 0.00, -0.00, -1.00, 929.3, 1350.0)">L</text><text xml:space="preserve" font-family="Novecentosanswide-Medium" font-size="112.0" fill="#FEFFFF" transform="matrix(1.00, 0.00, -0.00, -1.00, 988.5, 1350.0)">E</text><text xml:space="preserve" font-family="Novecentosanswide-Medium" font-size="112.0" fill="#FEFFFF" transform="matrix(1.00, 0.00, -0.00, -1.00, 1051.9, 1350.0)"> </text><text xml:space="preserve" font-family="Novecentosanswide-DemiBold" font-weight="bold" font-size="112.0" fill="#8899A5" transform="matrix(1.00, 0.00, -0.00, -1.00, 1075.7, 1350.0)">O</text><text xml:space="preserve" font-family="Novecentosanswide-DemiBold" font-weight="bold" font-size="112.0" fill="#8899A5" transform="matrix(1.00, 0.00, -0.00, -1.00, 1161.6, 1350.0)">U</text><text xml:space="preserve" font-family="Novecentosanswide-DemiBold" font-weight="bold" font-size="112.0" fill="#8899A5" transform="matrix(1.00, 0.00, -0.00, -1.00, 1236.3, 1350.0)">T</text><text xml:space="preserve" font-family="Novecentosanswide-DemiBold" font-weight="bold" font-size="112.0" fill="#8899A5" transform="matrix(1.00, 0.00, -0.00, -1.00, 1305.0, 1350.0)">P</text><text xml:space="preserve" font-family="Novecentosanswide-DemiBold" font-weight="bold" font-size="112.0" fill="#8899A5" transform="matrix(1.00, 0.00, -0.00, -1.00, 1368.3, 1350.0)">U</text><text xml:space="preserve" font-family="Novecentosanswide-DemiBold" font-weight="bold" font-size="112.0" fill="#8899A5" transform="matrix(1.00, 0.00, -0.00, -1.00, 1443.0, 1350.0)">T</text><text xml:space="preserve" font-family="Novecentosanswide-Medium" font-size="50.0" fill="#FEFFFF" transform="matrix(1.00, 0.00, -0.00, -1.00, 951.0, 607.0)">C</text><text xml:space="preserve" font-family="Novecentosanswide-Medium" font-size="50.0" fill="#FEFFFF" transform="matrix(1.00, 0.00, -0.00, -1.00, 989.1, 607.0)">O</text><text xml:space="preserve" font-family="Novecentosanswide-Medium" font-size="50.0" fill="#FEFFFF" transform="matrix(1.00, 0.00, -0.00, -1.00, 1029.0, 607.0)">D</text><text xml:space="preserve" font-family="Novecentosanswide-Medium" font-size="50.0" fill="#FEFFFF" transform="matrix(1.00, 0.00, -0.00, -1.00, 1065.8, 607.0)">E</text><text xml:space="preserve" font-family="Novecentosanswide-Medium" font-size="50.0" fill="#FEFFFF" transform="matrix(1.00, 0.00, -0.00, -1.00, 923.0, 1136.0)">E</text><text xml:space="preserve" font-family="Novecentosanswide-Medium" font-size="50.0" fill="#FEFFFF" transform="matrix(1.00, 0.00, -0.00, -1.00, 953.2, 1136.0)">X</text><text xml:space="preserve" font-family="Novecentosanswide-Medium" font-size="50.0" fill="#FEFFFF" transform="matrix(1.00, 0.00, -0.00, -1.00, 989.2, 1136.0)">A</text><text xml:space="preserve" font-family="Novecentosanswide-Medium" font-size="50.0" fill="#FEFFFF" transform="matrix(1.00, 0.00, -0.00, -1.00, 1026.2, 1136.0)">M</text><text xml:space="preserve" font-family="Novecentosanswide-Medium" font-size="50.0" fill="#FEFFFF" transform="matrix(1.00, 0.00, -0.00, -1.00, 1066.5, 1136.0)">P</text><text xml:space="preserve" font-family="Novecentosanswide-Medium" font-size="50.0" fill="#FEFFFF" transform="matrix(1.00, 0.00, -0.00, -1.00, 1096.0, 1136.0)">L</text><text xml:space="preserve" font-family="Novecentosanswide-Medium" font-size="50.0" fill="#FEFFFF" transform="matrix(1.00, 0.00, -0.00, -1.00, 1124.3, 1136.0)">E</text><image xlink:href="../../AB7B5B61-E67D-4A00-BBEF-1C487C03622F/assets/1FB79F9D93BA63E6062B344DBE70FD2B.png" width="1681.00" height="433.00" transform="matrix(1.00, 0.00, -0.00, -1.00, 183.7, 569.4)" opacity="0.70"></image><image xlink:href="../../AB7B5B61-E67D-4A00-BBEF-1C487C03622F/assets/3A1594617CEB9FEC3B9196CFCF388F84.png" width="802.00" height="192.00" transform="matrix(2.04, 0.00, -0.00, -2.04, 204.0, 559.0)"></image><image xlink:href="../../AB7B5B61-E67D-4A00-BBEF-1C487C03622F/assets/B90A154C60A34AAC1F81AFB6FEB35C92.png" width="903.00" height="372.00" transform="matrix(1.00, 0.00, -0.00, -1.00, 572.7, 1100.8)" opacity="0.70"></image><image xlink:href="../../AB7B5B61-E67D-4A00-BBEF-1C487C03622F/assets/52F5E30D6AD5FC1597D9F65CED5935A0.png" width="384.00" height="148.00" transform="matrix(2.24, 0.00, -0.00, -2.25, 593.0, 1091.0)"></image></g></svg>