<?xml version="1.0" encoding="UTF-8" standalone="no"?><svg xmlns="http://www.w3.org/2000/svg" xmlns:xlink="http://www.w3.org/1999/xlink" clip-rule="evenodd" stroke-miterlimit="4.00" viewBox="0 0 2048 1536"><desc>SVG generated by Keynote</desc><defs></defs><g transform="matrix(1.00, 0.00, -0.00, -1.00, 0.0, 1536.0)"><g><clipPath id="clip-207"><path d="M 0.0 1536.0 L 2048.0 1536.0 L 2048.0 0.0 L 0.0 0.0 Z M 0.0 1536.0 "></path></clipPath><g clip-path="url(#clip-207)"><image xlink:href="../../B2961985-4EB2-4BF3-B17D-0C256ECF333E/assets/EA215432A0DB698A213B0261797CC710.jpeg" width="1024.00" height="768.00" transform="matrix(2.00, 0.00, -0.00, -2.00, 0.0, 1536.0)"></image></g></g><g><clipPath id="clip-208"><path d="M 1888.1 60.7 L 1978.8 60.7 L 1978.8 151.4 L 1888.1 151.4 Z M 1888.1 60.7 "></path></clipPath><g clip-path="url(#clip-208)"><path d="M 1964.8 137.4 C 1982.1 120.1 1982.1 92.1 1964.8 74.7 C 1947.5 57.4 1919.4 57.4 1902.1 74.7 C 1884.8 92.1 1884.8 120.1 1902.1 137.4 C 1919.4 154.8 1947.5 154.8 1964.8 137.4 " fill="#728089"></path></g></g><g><clipPath id="clip-209"><path d="M 1930.4 81.8 L 1906.2 106.0 L 1930.4 130.2 L 1954.6 106.0 Z M 1930.4 81.8 "></path></clipPath><g clip-path="url(#clip-209)"><path d="M 1930.4 83.2 L 1923.8 89.8 L 1940.6 106.6 L 1924.4 122.9 L 1930.4 128.8 L 1953.2 106.0 Z M 1930.4 83.2 " fill="#FEFFFF"></path></g></g><g><clipPath id="clip-210"><path d="M 1770.6 60.7 L 1861.3 60.7 L 1861.3 151.4 L 1770.6 151.4 Z M 1770.6 60.7 "></path></clipPath><g clip-path="url(#clip-210)"><path d="M 1847.3 137.4 C 1864.6 120.1 1864.6 92.1 1847.3 74.7 C 1830.0 57.4 1801.9 57.4 1784.6 74.7 C 1767.2 92.1 1767.2 120.1 1784.6 137.4 C 1801.9 154.8 1830.0 154.8 1847.3 137.4 " fill="#728089"></path></g></g><g><clipPath id="clip-211"><path d="M 1817.5 130.2 L 1841.7 106.0 L 1817.5 81.8 L 1793.3 106.0 Z M 1817.5 130.2 "></path></clipPath><g clip-path="url(#clip-211)"><path d="M 1817.5 128.8 L 1824.1 122.3 L 1807.3 105.4 L 1823.5 89.2 L 1817.5 83.2 L 1794.7 106.0 Z M 1817.5 128.8 " fill="#FEFFFF"></path></g></g><text xml:space="preserve" font-family="Cantarell-Regular" font-size="68.0" fill="#8899A5" transform="matrix(1.00, 0.00, -0.00, -1.00, 680.0, 1255.0)">c</text><text xml:space="preserve" font-family="Cantarell-Regular" font-size="68.0" fill="#8899A5" transform="matrix(1.00, 0.00, -0.00, -1.00, 713.2, 1255.0)">o</text><text xml:space="preserve" font-family="Cantarell-Regular" font-size="68.0" fill="#8899A5" transform="matrix(1.00, 0.00, -0.00, -1.00, 753.5, 1255.0)">m</text><text xml:space="preserve" font-family="Cantarell-Regular" font-size="68.0" fill="#8899A5" transform="matrix(1.00, 0.00, -0.00, -1.00, 811.0, 1255.0)">m</text><text xml:space="preserve" font-family="Cantarell-Regular" font-size="68.0" fill="#8899A5" transform="matrix(1.00, 0.00, -0.00, -1.00, 868.6, 1255.0)">u</text><text xml:space="preserve" font-family="Cantarell-Regular" font-size="68.0" fill="#8899A5" transform="matrix(1.00, 0.00, -0.00, -1.00, 907.6, 1255.0)">n</text><text xml:space="preserve" font-family="Cantarell-Regular" font-size="68.0" fill="#8899A5" transform="matrix(1.00, 0.00, -0.00, -1.00, 946.7, 1255.0)">i</text><text xml:space="preserve" font-family="Cantarell-Regular" font-size="68.0" fill="#8899A5" transform="matrix(1.00, 0.00, -0.00, -1.00, 964.1, 1255.0)">c</text><text xml:space="preserve" font-family="Cantarell-Regular" font-size="68.0" fill="#8899A5" transform="matrix(1.00, 0.00, -0.00, -1.00, 997.3, 1255.0)">a</text><text xml:space="preserve" font-family="Cantarell-Regular" font-size="68.0" fill="#8899A5" transform="matrix(1.00, 0.00, -0.00, -1.00, 1032.8, 1255.0)">t</text><text xml:space="preserve" font-family="Cantarell-Regular" font-size="68.0" fill="#8899A5" transform="matrix(1.00, 0.00, -0.00, -1.00, 1058.5, 1255.0)">i</text><text xml:space="preserve" font-family="Cantarell-Regular" font-size="68.0" fill="#8899A5" transform="matrix(1.00, 0.00, -0.00, -1.00, 1075.9, 1255.0)">n</text><text xml:space="preserve" font-family="Cantarell-Regular" font-size="68.0" fill="#8899A5" transform="matrix(1.00, 0.00, -0.00, -1.00, 1115.0, 1255.0)">g</text><text xml:space="preserve" font-family="Cantarell-Regular" font-size="68.0" fill="#8899A5" transform="matrix(1.00, 0.00, -0.00, -1.00, 1154.1, 1255.0)"> </text><text xml:space="preserve" font-family="Cantarell-Regular" font-size="68.0" fill="#8899A5" transform="matrix(1.00, 0.00, -0.00, -1.00, 1172.7, 1255.0)">s</text><text xml:space="preserve" font-family="Cantarell-Regular" font-size="68.0" fill="#8899A5" transform="matrix(1.00, 0.00, -0.00, -1.00, 1206.4, 1255.0)">t</text><text xml:space="preserve" font-family="Cantarell-Regular" font-size="68.0" fill="#8899A5" transform="matrix(1.00, 0.00, -0.00, -1.00, 1232.2, 1255.0)">a</text><text xml:space="preserve" font-family="Cantarell-Regular" font-size="68.0" fill="#8899A5" transform="matrix(1.00, 0.00, -0.00, -1.00, 1267.7, 1255.0)">t</text><text xml:space="preserve" font-family="Cantarell-Regular" font-size="68.0" fill="#8899A5" transform="matrix(1.00, 0.00, -0.00, -1.00, 1293.4, 1255.0)">u</text><text xml:space="preserve" font-family="Cantarell-Regular" font-size="68.0" fill="#8899A5" transform="matrix(1.00, 0.00, -0.00, -1.00, 1332.5, 1255.0)">s</text><text xml:space="preserve" font-family="Novecentosanswide-Medium" font-size="112.0" fill="#FEFFFF" transform="matrix(1.00, 0.00, -0.00, -1.00, 536.0, 1350.0)">C</text><text xml:space="preserve" font-family="Novecentosanswide-Medium" font-size="112.0" fill="#FEFFFF" transform="matrix(1.00, 0.00, -0.00, -1.00, 617.1, 1350.0)">O</text><text xml:space="preserve" font-family="Novecentosanswide-Medium" font-size="112.0" fill="#FEFFFF" transform="matrix(1.00, 0.00, -0.00, -1.00, 702.4, 1350.0)">N</text><text xml:space="preserve" font-family="Novecentosanswide-Medium" font-size="112.0" fill="#FEFFFF" transform="matrix(1.00, 0.00, -0.00, -1.00, 780.6, 1350.0)">S</text><text xml:space="preserve" font-family="Novecentosanswide-Medium" font-size="112.0" fill="#FEFFFF" transform="matrix(1.00, 0.00, -0.00, -1.00, 844.0, 1350.0)">O</text><text xml:space="preserve" font-family="Novecentosanswide-Medium" font-size="112.0" fill="#FEFFFF" transform="matrix(1.00, 0.00, -0.00, -1.00, 929.3, 1350.0)">L</text><text xml:space="preserve" font-family="Novecentosanswide-Medium" font-size="112.0" fill="#FEFFFF" transform="matrix(1.00, 0.00, -0.00, -1.00, 988.5, 1350.0)">E</text><text xml:space="preserve" font-family="Novecentosanswide-Medium" font-size="112.0" fill="#FEFFFF" transform="matrix(1.00, 0.00, -0.00, -1.00, 1051.9, 1350.0)"> </text><text xml:space="preserve" font-family="Novecentosanswide-DemiBold" font-weight="bold" font-size="112.0" fill="#8899A5" transform="matrix(1.00, 0.00, -0.00, -1.00, 1075.7, 1350.0)">O</text><text xml:space="preserve" font-family="Novecentosanswide-DemiBold" font-weight="bold" font-size="112.0" fill="#8899A5" transform="matrix(1.00, 0.00, -0.00, -1.00, 1161.6, 1350.0)">U</text><text xml:space="preserve" font-family="Novecentosanswide-DemiBold" font-weight="bold" font-size="112.0" fill="#8899A5" transform="matrix(1.00, 0.00, -0.00, -1.00, 1236.3, 1350.0)">T</text><text xml:space="preserve" font-family="Novecentosanswide-DemiBold" font-weight="bold" font-size="112.0" fill="#8899A5" transform="matrix(1.00, 0.00, -0.00, -1.00, 1305.0, 1350.0)">P</text><text xml:space="preserve" font-family="Novecentosanswide-DemiBold" font-weight="bold" font-size="112.0" fill="#8899A5" transform="matrix(1.00, 0.00, -0.00, -1.00, 1368.3, 1350.0)">U</text><text xml:space="preserve" font-family="Novecentosanswide-DemiBold" font-weight="bold" font-size="112.0" fill="#8899A5" transform="matrix(1.00, 0.00, -0.00, -1.00, 1443.0, 1350.0)">T</text><text xml:space="preserve" font-family="Novecentosanswide-Medium" font-size="50.0" fill="#FEFFFF" transform="matrix(1.00, 0.00, -0.00, -1.00, 126.0, 814.0)">C</text><text xml:space="preserve" font-family="Novecentosanswide-Medium" font-size="50.0" fill="#FEFFFF" transform="matrix(1.00, 0.00, -0.00, -1.00, 164.1, 814.0)">O</text><text xml:space="preserve" font-family="Novecentosanswide-Medium" font-size="50.0" fill="#FEFFFF" transform="matrix(1.00, 0.00, -0.00, -1.00, 204.1, 814.0)">D</text><text xml:space="preserve" font-family="Novecentosanswide-Medium" font-size="50.0" fill="#FEFFFF" transform="matrix(1.00, 0.00, -0.00, -1.00, 240.9, 814.0)">E</text><image xlink:href="../../0C8BAF09-933A-40AD-AA9A-B6E1C6D81954/assets/2AE4D7B395B03BA16CC400DBFEA8F6D3.png" width="1395.00" height="888.00" transform="matrix(1.00, 0.00, -0.00, -1.00, 326.4, 871.6)" opacity="0.70"></image><image xlink:href="../../0C8BAF09-933A-40AD-AA9A-B6E1C6D81954/assets/CAF26A92EAB53011D7F414AB7BE6DA68.png" width="588.00" height="368.00" transform="matrix(2.31, 0.00, -0.00, -2.31, 346.0, 862.0)"></image><image xlink:href="../../0C8BAF09-933A-40AD-AA9A-B6E1C6D81954/assets/9627706AE0A420D0FA2678633785AB13.png" width="1576.00" height="291.00" transform="matrix(1.00, 0.00, -0.00, -1.00, 339.0, 1185.0)" opacity="0.50"></image><image xlink:href="8E774E7DE9EE32BA15CE8EF4503A4004.png" width="376.00" height="67.00" transform="matrix(4.16, 0.00, -0.00, -4.16, 342.6, 1182.2)"></image><text xml:space="preserve" font-family="Novecentosanswide-Medium" font-size="50.0" fill="#FEFFFF" transform="matrix(1.00, 0.00, -0.00, -1.00, 83.0, 1127.0)">E</text><text xml:space="preserve" font-family="Novecentosanswide-Medium" font-size="50.0" fill="#FEFFFF" transform="matrix(1.00, 0.00, -0.00, -1.00, 113.2, 1127.0)">X</text><text xml:space="preserve" font-family="Novecentosanswide-Medium" font-size="50.0" fill="#FEFFFF" transform="matrix(1.00, 0.00, -0.00, -1.00, 149.2, 1127.0)">A</text><text xml:space="preserve" font-family="Novecentosanswide-Medium" font-size="50.0" fill="#FEFFFF" transform="matrix(1.00, 0.00, -0.00, -1.00, 186.2, 1127.0)">M</text><text xml:space="preserve" font-family="Novecentosanswide-Medium" font-size="50.0" fill="#FEFFFF" transform="matrix(1.00, 0.00, -0.00, -1.00, 226.6, 1127.0)">P</text><text xml:space="preserve" font-family="Novecentosanswide-Medium" font-size="50.0" fill="#FEFFFF" transform="matrix(1.00, 0.00, -0.00, -1.00, 256.0, 1127.0)">L</text><text xml:space="preserve" font-family="Novecentosanswide-Medium" font-size="50.0" fill="#FEFFFF" transform="matrix(1.00, 0.00, -0.00, -1.00, 284.3, 1127.0)">E</text></g></svg>